<svg xmlns="http://www.w3.org/2000/svg" xmlns:xlink="http://www.w3.org/1999/xlink" version="1.1" x="0px" y="0px" viewBox="0 0 200 250" style="enable-background:new 0 0 200 200;" xml:space="preserve"><g><path d="M119.9,165c-0.5,0-1-0.4-1-1v-12.5l0,0c0-0.1,0.9-11.8-5-18.7c-2.5-2.9-5.9-4.6-10.2-4.9   c-7.7-0.5-12.6-2.5-14.7-5.7c-1.3-2-1.4-4.5-0.4-7.2c0.6-1.4,1.5-2.7,2.7-3.9c0.3-0.3,0.4-0.7,0.5-2.5c0-0.3,0-0.6,0.1-1   c0-0.5,0.5-0.9,1-0.9c0.5,0,0.9,0.5,0.9,1c0,0.4,0,0.7-0.1,1c-0.1,2-0.2,2.9-1.1,3.8c-1,0.9-1.7,2-2.2,3.1c-0.8,2.1-0.8,4,0.2,5.5   c1.7,2.7,6.2,4.3,13.2,4.8c4.8,0.3,8.7,2.2,11.5,5.5c6.3,7.3,5.5,19.1,5.4,20v12.4C120.9,164.6,120.5,165,119.9,165z"/><rect x="86.2" y="87.4" width="5.7" height="17.2"/><rect x="94" y="87.4" width="5.7" height="17.2"/><path d="M93.5,85.5c-0.2,0-0.3,0-0.5-0.1c-0.5-0.3-0.6-0.9-0.3-1.3l0,0c0,0,1.8-3.1,0.1-5.2   c-1.5-1.8-6.7-1.7-8.4-1.6l-0.1,0l-0.1,0c-1.2-0.2-5.3-0.9-5-3.3c0.1-0.8,0.8-2.1,2.9-5.4c1.3-2.1,2.8-4.5,3.6-6.2   c0.5-1,1-1.8,1.5-2.7c0.2-0.4,0.4-0.7,0.7-1.1c0.3-0.4,0.6-0.9,1.1-1.5c1.9-2.6,3.6-5.1,2.1-7.3c-3.4-5.1,0-13.8,0.1-14.2   c0.2-0.5,0.7-0.7,1.2-0.5c0.5,0.2,0.7,0.7,0.5,1.2c0,0.1-3.1,8.2-0.3,12.4c2.3,3.4-0.5,7.2-2.2,9.5c-0.4,0.5-0.7,1-0.9,1.3   c-0.2,0.4-0.5,0.8-0.7,1.1c-0.5,0.8-1,1.7-1.4,2.5c-0.9,1.8-2.4,4.3-3.7,6.4c-1.1,1.8-2.5,4-2.6,4.6c0.1,0.4,1.6,1,3.3,1.2   c1.2-0.1,7.7-0.6,10,2.3c2.5,3.1,0.2,7.2,0.1,7.3C94.1,85.3,93.8,85.5,93.5,85.5z"/></g><text x="0" y="215" fill="#000000" font-size="5px" font-weight="bold" font-family="'Helvetica Neue', Helvetica, Arial-Unicode, Arial, Sans-serif">Created by Muki Huduti</text><text x="0" y="220" fill="#000000" font-size="5px" font-weight="bold" font-family="'Helvetica Neue', Helvetica, Arial-Unicode, Arial, Sans-serif">from the Noun Project</text></svg>